<svg width="24" height="24" viewBox="0 0 24 24" fill="none" xmlns="http://www.w3.org/2000/svg">
<path fill-rule="evenodd" clip-rule="evenodd" d="M15 4V9.783L19.269 19.172C19.552 19.794 19.499 20.509 19.129 21.083C18.9485 21.3649 18.6999 21.5967 18.4061 21.757C18.1122 21.9173 17.7827 22.0009 17.448 22H6.55301C6.21831 22.0009 5.88879 21.9173 5.59496 21.757C5.30113 21.5967 5.05248 21.3649 4.87201 21.083C4.68991 20.8019 4.58161 20.4795 4.55714 20.1454C4.53267 19.8114 4.59282 19.4766 4.73201 19.172L9.00001 9.783V4H8.00001V2H16V4H15ZM11 10C11 10.143 10.97 10.284 10.91 10.414L9.06739 15H14.697L13.09 10.414C13.03 10.284 13 10.143 13 10V4H11V10ZM15.3978 17H8.26381L7 20.1454H16.5L15.3978 17Z" fill="white"/>
</svg>
