<svg width="128" height="128" viewBox="0 0 128 128" fill="none" xmlns="http://www.w3.org/2000/svg">
<g clip-path="url(#clip0_13_2)">
<mask id="path-1-outside-1_13_2" maskUnits="userSpaceOnUse" x="22.2764" y="8.66666" width="84" height="111" fill="black">
<rect fill="white" x="22.2764" y="8.66666" width="84" height="111"/>
<path fill-rule="evenodd" clip-rule="evenodd" d="M80.0001 21.3333V52.176L102.768 102.251C104.277 105.568 103.995 109.381 102.021 112.443C101.059 113.946 99.7327 115.182 98.1656 116.037C96.5985 116.892 94.8411 117.338 93.0561 117.333H34.9494C33.1643 117.338 31.4069 116.892 29.8398 116.037C28.2727 115.182 26.9466 113.946 25.9841 112.443C25.0128 110.944 24.4353 109.224 24.3048 107.442C24.1743 105.661 24.495 103.875 25.2374 102.251L48.0001 52.176V21.3333H42.6667V10.6667H85.3334V21.3333H80.0001ZM58.6667 53.3333C58.6667 54.096 58.5067 54.848 58.1867 55.5413L48.3594 80H78.3839L69.8134 55.5413C69.4934 54.848 69.3334 54.096 69.3334 53.3333V21.3333H58.6667V53.3333ZM82.1216 90.6666H44.0737L37.3333 107.442H88L82.1216 90.6666Z"/>
</mask>
<path fill-rule="evenodd" clip-rule="evenodd" d="M80.0001 21.3333V52.176L102.768 102.251C104.277 105.568 103.995 109.381 102.021 112.443C101.059 113.946 99.7327 115.182 98.1656 116.037C96.5985 116.892 94.8411 117.338 93.0561 117.333H34.9494C33.1643 117.338 31.4069 116.892 29.8398 116.037C28.2727 115.182 26.9466 113.946 25.9841 112.443C25.0128 110.944 24.4353 109.224 24.3048 107.442C24.1743 105.661 24.495 103.875 25.2374 102.251L48.0001 52.176V21.3333H42.6667V10.6667H85.3334V21.3333H80.0001ZM58.6667 53.3333C58.6667 54.096 58.5067 54.848 58.1867 55.5413L48.3594 80H78.3839L69.8134 55.5413C69.4934 54.848 69.3334 54.096 69.3334 53.3333V21.3333H58.6667V53.3333ZM82.1216 90.6666H44.0737L37.3333 107.442H88L82.1216 90.6666Z" fill="white"/>
<path d="M80.0001 52.176H78.0001V52.6093L78.1794 53.0038L80.0001 52.176ZM80.0001 21.3333V19.3333H78.0001V21.3333H80.0001ZM102.768 102.251L100.947 103.078L100.948 103.079L102.768 102.251ZM102.021 112.443L100.34 111.359L100.337 111.364L102.021 112.443ZM98.1656 116.037L99.1234 117.793L99.1234 117.793L98.1656 116.037ZM93.0561 117.333L93.0611 115.333H93.0561V117.333ZM34.9494 117.333L34.9494 115.333L34.9443 115.333L34.9494 117.333ZM29.8398 116.037L28.882 117.793L28.882 117.793L29.8398 116.037ZM25.9841 112.443L27.6684 111.364L27.6626 111.355L25.9841 112.443ZM24.3048 107.442L26.2994 107.296L24.3048 107.442ZM25.2374 102.251L27.0565 103.082L27.0581 103.078L25.2374 102.251ZM48.0001 52.176L49.8208 53.0036L50.0001 52.6092V52.176H48.0001ZM48.0001 21.3333H50.0001V19.3333H48.0001V21.3333ZM42.6667 21.3333H40.6667V23.3333H42.6667V21.3333ZM42.6667 10.6667V8.66666H40.6667V10.6667H42.6667ZM85.3334 10.6667H87.3334V8.66666H85.3334V10.6667ZM85.3334 21.3333V23.3333H87.3334V21.3333H85.3334ZM58.1867 55.5413L56.3708 54.7032L56.3497 54.7489L56.3309 54.7957L58.1867 55.5413ZM48.3594 80L46.5036 79.2543L45.4005 82H48.3594V80ZM78.3839 80V82H81.204L80.2714 79.3386L78.3839 80ZM69.8134 55.5413L71.7009 54.8799L71.6693 54.7899L71.6293 54.7032L69.8134 55.5413ZM69.3334 21.3333H71.3334V19.3333H69.3334V21.3333ZM58.6667 21.3333V19.3333H56.6667V21.3333H58.6667ZM82.1216 90.6666L84.0091 90.0053L83.54 88.6666H82.1216V90.6666ZM44.0737 90.6666V88.6666H42.7218L42.2179 89.921L44.0737 90.6666ZM37.3333 107.442L35.4775 106.697L34.3744 109.442H37.3333V107.442ZM88 107.442V109.442H90.8201L89.8875 106.781L88 107.442ZM82.0001 52.176V21.3333H78.0001V52.176H82.0001ZM104.589 101.423L81.8207 51.3482L78.1794 53.0038L100.947 103.078L104.589 101.423ZM103.702 113.526C106.044 109.894 106.38 105.361 104.588 101.422L100.948 103.079C102.174 105.775 101.946 108.868 100.34 111.359L103.702 113.526ZM99.1234 117.793C100.986 116.777 102.562 115.308 103.706 113.521L100.337 111.364C99.5559 112.584 98.4796 113.588 97.2079 114.281L99.1234 117.793ZM93.051 119.333C95.1724 119.339 97.261 118.809 99.1234 117.793L97.2079 114.281C95.9361 114.975 94.5098 115.337 93.0611 115.333L93.051 119.333ZM34.9494 119.333H93.0561V115.333H34.9494V119.333ZM28.882 117.793C30.7444 118.809 32.833 119.339 34.9545 119.333L34.9443 115.333C33.4956 115.337 32.0694 114.975 30.7976 114.281L28.882 117.793ZM24.2997 113.521C25.4436 115.308 27.0196 116.777 28.882 117.793L30.7976 114.281C29.5258 113.588 28.4496 112.584 27.6684 111.364L24.2997 113.521ZM22.3101 107.588C22.4652 109.705 23.1515 111.749 24.3055 113.53L27.6626 111.355C26.8742 110.138 26.4054 108.742 26.2994 107.296L22.3101 107.588ZM23.4183 101.419C22.5362 103.35 22.155 105.472 22.3101 107.588L26.2994 107.296C26.1935 105.85 26.4539 104.401 27.0565 103.082L23.4183 101.419ZM46.1793 51.3483L23.4167 101.423L27.0581 103.078L49.8208 53.0036L46.1793 51.3483ZM46.0001 21.3333V52.176H50.0001V21.3333H46.0001ZM42.6667 23.3333H48.0001V19.3333H42.6667V23.3333ZM40.6667 10.6667V21.3333H44.6667V10.6667H40.6667ZM85.3334 8.66666H42.6667V12.6667H85.3334V8.66666ZM87.3334 21.3333V10.6667H83.3334V21.3333H87.3334ZM80.0001 23.3333H85.3334V19.3333H80.0001V23.3333ZM60.0026 56.3794C60.4476 55.4153 60.6667 54.3764 60.6667 53.3333H56.6667C56.6667 53.8156 56.5658 54.2807 56.3708 54.7032L60.0026 56.3794ZM50.2152 80.7456L60.0425 56.287L56.3309 54.7957L46.5036 79.2543L50.2152 80.7456ZM48.3594 82H78.3839V78H48.3594V82ZM67.9259 56.2027L76.4965 80.6614L80.2714 79.3386L71.7009 54.8799L67.9259 56.2027ZM67.3334 53.3333C67.3334 54.3764 67.5525 55.4153 67.9975 56.3794L71.6293 54.7032C71.4343 54.2807 71.3334 53.8156 71.3334 53.3333H67.3334ZM67.3334 21.3333V53.3333H71.3334V21.3333H67.3334ZM58.6667 23.3333H69.3334V19.3333H58.6667V23.3333ZM60.6667 53.3333V21.3333H56.6667V53.3333H60.6667ZM82.1216 88.6666H44.0737V92.6666H82.1216V88.6666ZM39.1891 108.188L45.9295 91.4123L42.2179 89.921L35.4775 106.697L39.1891 108.188ZM88 105.442H37.3333V109.442H88V105.442ZM80.2342 91.328L86.1125 108.104L89.8875 106.781L84.0091 90.0053L80.2342 91.328Z" fill="#EAB308" mask="url(#path-1-outside-1_13_2)"/>
</g>
<defs>
<clipPath id="clip0_13_2">
<rect width="128" height="128" fill="white"/>
</clipPath>
</defs>
</svg>
